<svg width="35" height="35" viewBox="0 0 35 35" fill="none" xmlns="http://www.w3.org/2000/svg">
<rect width="35" height="35" rx="10" fill="#3D5EF3"/>
<path d="M23.2 26C22.364 26 21.68 25.325 21.68 24.5C21.68 23.675 22.364 23 23.2 23C24.036 23 24.72 23.675 24.72 24.5C24.72 25.325 24.036 26 23.2 26ZM14.08 26C13.244 26 12.56 25.325 12.56 24.5C12.56 23.675 13.244 23 14.08 23C14.916 23 15.6 23.675 15.6 24.5C15.6 25.325 14.916 26 14.08 26ZM22.82 21.5H13.32C12.028 21.5 11.04 20.525 11.04 19.25V9.5H8.76C8.304 9.5 8 9.2 8 8.75C8 8.3 8.304 8 8.76 8H11.8C12.256 8 12.56 8.3 12.56 8.75V11H24.948C26.088 11 27 11.9 27 13.025C27 13.25 27 13.4 26.924 13.625L25.024 19.85C24.72 20.825 23.808 21.5 22.82 21.5Z" fill="white"/>
</svg>
