<svg width="187" height="32" viewBox="0 0 187 32" fill="none" xmlns="http://www.w3.org/2000/svg">
<path d="M17.7 3V7.14H11.52V24H7.38V7.14H1.2V3H17.7ZM19.9244 24L19.9094 9H24.0494L24.0644 10.11C24.5644 9.63 25.1494 9.255 25.8194 8.985C26.4994 8.715 27.2144 8.58 27.9644 8.58C28.5144 8.58 29.0644 8.66 29.6144 8.82L27.9794 13.005C27.6194 12.855 27.2544 12.78 26.8844 12.78C26.3644 12.78 25.8894 12.905 25.4594 13.155C25.0294 13.405 24.6894 13.745 24.4394 14.175C24.1894 14.595 24.0644 15.07 24.0644 15.6V24H19.9244ZM38.1441 24.39C36.7641 24.39 35.5041 24.035 34.3641 23.325C33.2341 22.615 32.3291 21.66 31.6491 20.46C30.9791 19.26 30.6441 17.935 30.6441 16.485C30.6441 15.395 30.8391 14.375 31.2291 13.425C31.6191 12.465 32.1541 11.625 32.8341 10.905C33.5241 10.175 34.3241 9.605 35.2341 9.195C36.1441 8.785 37.1141 8.58 38.1441 8.58C39.3341 8.58 40.4191 8.835 41.3991 9.345C42.3891 9.855 43.2241 10.55 43.9041 11.43C44.5941 12.31 45.0841 13.305 45.3741 14.415C45.6741 15.525 45.7241 16.68 45.5241 17.88H35.1141C35.2441 18.32 35.4441 18.72 35.7141 19.08C35.9941 19.43 36.3341 19.71 36.7341 19.92C37.1441 20.13 37.6141 20.24 38.1441 20.25C38.6641 20.26 39.1441 20.14 39.5841 19.89C40.0241 19.64 40.3991 19.305 40.7091 18.885L44.9391 19.86C44.3291 21.19 43.4191 22.28 42.2091 23.13C40.9991 23.97 39.6441 24.39 38.1441 24.39ZM34.9641 14.82H41.3391C41.2091 14.32 40.9891 13.87 40.6791 13.47C40.3691 13.07 39.9941 12.755 39.5541 12.525C39.1241 12.295 38.6541 12.18 38.1441 12.18C37.6441 12.18 37.1741 12.295 36.7341 12.525C36.3041 12.755 35.9341 13.07 35.6241 13.47C35.3241 13.86 35.1041 14.31 34.9641 14.82ZM62.8561 14.46V24H58.7161V15.6C58.7161 15.07 58.5861 14.595 58.3261 14.175C58.0761 13.745 57.7361 13.405 57.3061 13.155C56.8861 12.905 56.4161 12.78 55.8961 12.78C55.3761 12.78 54.9011 12.905 54.4711 13.155C54.0411 13.405 53.7011 13.745 53.4511 14.175C53.2011 14.595 53.0761 15.07 53.0761 15.6V24H48.9361L48.9211 9H53.0611L53.0761 10.11C53.5761 9.63 54.1611 9.255 54.8311 8.985C55.5111 8.715 56.2261 8.58 56.9761 8.58C58.0661 8.58 59.0511 8.845 59.9311 9.375C60.8211 9.905 61.5311 10.615 62.0611 11.505C62.5911 12.385 62.8561 13.37 62.8561 14.46ZM77.5867 1.5H81.7267V24H77.5867V22.41C77.1267 22.99 76.5567 23.465 75.8767 23.835C75.1967 24.205 74.4217 24.39 73.5517 24.39C72.4617 24.39 71.4417 24.185 70.4917 23.775C69.5417 23.365 68.7017 22.8 67.9717 22.08C67.2517 21.35 66.6867 20.51 66.2767 19.56C65.8667 18.61 65.6617 17.59 65.6617 16.5C65.6617 15.41 65.8667 14.39 66.2767 13.44C66.6867 12.49 67.2517 11.655 67.9717 10.935C68.7017 10.205 69.5417 9.635 70.4917 9.225C71.4417 8.815 72.4617 8.61 73.5517 8.61C74.4217 8.61 75.1967 8.795 75.8767 9.165C76.5567 9.525 77.1267 10 77.5867 10.59V1.5ZM73.6117 20.415C74.2917 20.415 74.9067 20.24 75.4567 19.89C76.0067 19.54 76.4417 19.07 76.7617 18.48C77.0817 17.88 77.2417 17.22 77.2417 16.5C77.2417 15.77 77.0817 15.11 76.7617 14.52C76.4417 13.93 76.0067 13.46 75.4567 13.11C74.9067 12.76 74.2917 12.585 73.6117 12.585C72.9217 12.585 72.2967 12.76 71.7367 13.11C71.1767 13.46 70.7317 13.935 70.4017 14.535C70.0717 15.125 69.9067 15.78 69.9067 16.5C69.9067 17.22 70.0717 17.88 70.4017 18.48C70.7417 19.07 71.1917 19.54 71.7517 19.89C72.3117 20.24 72.9317 20.415 73.6117 20.415ZM95.4298 9H99.8398L91.6198 31.5H87.2398L89.9398 24L84.5398 9H89.0698L92.0098 18.345L95.4298 9ZM111.045 19.26L114.765 21.27C114.075 22.21 113.21 22.965 112.17 23.535C111.13 24.105 109.995 24.39 108.765 24.39C107.385 24.39 106.125 24.035 104.985 23.325C103.855 22.615 102.95 21.665 102.27 20.475C101.6 19.275 101.265 17.95 101.265 16.5C101.265 15.4 101.46 14.375 101.85 13.425C102.24 12.465 102.775 11.625 103.455 10.905C104.145 10.175 104.945 9.605 105.855 9.195C106.765 8.785 107.735 8.58 108.765 8.58C109.995 8.58 111.13 8.865 112.17 9.435C113.21 10.005 114.075 10.77 114.765 11.73L111.045 13.74C110.735 13.41 110.38 13.16 109.98 12.99C109.59 12.81 109.185 12.72 108.765 12.72C108.125 12.72 107.55 12.895 107.04 13.245C106.54 13.595 106.14 14.06 105.84 14.64C105.55 15.21 105.405 15.83 105.405 16.5C105.405 17.16 105.555 17.775 105.855 18.345C106.155 18.915 106.555 19.375 107.055 19.725C107.565 20.075 108.135 20.25 108.765 20.25C109.195 20.25 109.605 20.16 109.995 19.98C110.385 19.8 110.735 19.56 111.045 19.26ZM128.912 9H133.052V24H128.897L128.702 22.44C128.312 23.02 127.812 23.49 127.202 23.85C126.592 24.21 125.877 24.39 125.057 24.39C123.937 24.39 122.892 24.18 121.922 23.76C120.952 23.34 120.097 22.76 119.357 22.02C118.617 21.28 118.037 20.425 117.617 19.455C117.207 18.475 117.002 17.425 117.002 16.305C117.002 15.235 117.197 14.235 117.587 13.305C117.977 12.375 118.527 11.555 119.237 10.845C119.947 10.135 120.762 9.58 121.682 9.18C122.612 8.78 123.612 8.58 124.682 8.58C125.602 8.58 126.427 8.775 127.157 9.165C127.897 9.555 128.542 10.05 129.092 10.65L128.912 9ZM124.952 20.415C125.632 20.415 126.247 20.24 126.797 19.89C127.347 19.54 127.782 19.07 128.102 18.48C128.422 17.88 128.582 17.22 128.582 16.5C128.582 15.77 128.422 15.11 128.102 14.52C127.782 13.93 127.347 13.46 126.797 13.11C126.247 12.76 125.632 12.585 124.952 12.585C124.262 12.585 123.637 12.76 123.077 13.11C122.517 13.46 122.072 13.935 121.742 14.535C121.412 15.125 121.247 15.78 121.247 16.5C121.247 17.22 121.412 17.88 121.742 18.48C122.082 19.07 122.532 19.54 123.092 19.89C123.652 20.24 124.272 20.415 124.952 20.415ZM137.081 24L137.066 9H141.206L141.221 10.11C141.721 9.63 142.306 9.255 142.976 8.985C143.656 8.715 144.371 8.58 145.121 8.58C145.671 8.58 146.221 8.66 146.771 8.82L145.136 13.005C144.776 12.855 144.411 12.78 144.041 12.78C143.521 12.78 143.046 12.905 142.616 13.155C142.186 13.405 141.846 13.745 141.596 14.175C141.346 14.595 141.221 15.07 141.221 15.6V24H137.081ZM158.032 13.14H155.332V24H151.192V13.14H149.122V9H151.192V4.29H155.332V9H158.032V13.14Z" fill="black"/>
<path d="M182.4 24C181.388 24 180.56 23.175 180.56 22.1667C180.56 21.1583 181.388 20.3333 182.4 20.3333C183.412 20.3333 184.24 21.1583 184.24 22.1667C184.24 23.175 183.412 24 182.4 24ZM171.36 24C170.348 24 169.52 23.175 169.52 22.1667C169.52 21.1583 170.348 20.3333 171.36 20.3333C172.372 20.3333 173.2 21.1583 173.2 22.1667C173.2 23.175 172.372 24 171.36 24ZM181.94 18.5H170.44C168.876 18.5 167.68 17.3083 167.68 15.75V3.83333H164.92C164.368 3.83333 164 3.46667 164 2.91667C164 2.36667 164.368 2 164.92 2H168.6C169.152 2 169.52 2.36667 169.52 2.91667V5.66667H184.516C185.896 5.66667 187 6.76667 187 8.14167C187 8.41667 187 8.6 186.908 8.875L184.608 16.4833C184.24 17.675 183.136 18.5 181.94 18.5Z" fill="#3D5EF3"/>
</svg>
